<?xml version="1.0" encoding="UTF-8"?>
<svg id="Layer_1" xmlns="http://www.w3.org/2000/svg" viewBox="0 0 1005.18 553.41">
  <defs>
    <style>
      .cls-1 {
        fill: #f6f5f3;
      }
    </style>
  </defs>
  <g>
    <path class="cls-1" d="M315.35,229.11c-2.33,0-4.12-.67-5.37-2s-1.87-3.16-1.87-5.49v-75.03c0-2.41.67-4.26,2-5.56,1.33-1.29,3.16-1.94,5.49-1.94,2.08,0,3.72.4,4.93,1.19,1.21.79,2.31,2.14,3.31,4.06l30.84,57.06h-3.99l30.84-57.06c1-1.91,2.08-3.27,3.25-4.06,1.16-.79,2.79-1.19,4.87-1.19,2.33,0,4.12.65,5.37,1.94,1.25,1.29,1.87,3.14,1.87,5.56v75.03c0,2.33-.61,4.16-1.81,5.49-1.21,1.33-3.02,2-5.43,2s-4.12-.67-5.37-2c-1.25-1.33-1.87-3.16-1.87-5.49v-57.8h2.75l-26.22,47.82c-.83,1.42-1.71,2.45-2.62,3.12-.92.67-2.17,1-3.75,1s-2.87-.35-3.87-1.06c-1-.7-1.87-1.73-2.62-3.06l-26.47-47.94h3v57.93c0,2.33-.61,4.16-1.81,5.49-1.21,1.33-3.02,2-5.43,2Z"/>
    <path class="cls-1" d="M422.47,154.57c-2.91,0-5.18-.73-6.8-2.19-1.62-1.46-2.43-3.47-2.43-6.05s.81-4.7,2.43-6.12c1.62-1.41,3.89-2.12,6.8-2.12s5.28.71,6.87,2.12c1.58,1.42,2.37,3.46,2.37,6.12s-.79,4.6-2.37,6.05c-1.58,1.46-3.87,2.19-6.87,2.19ZM422.47,228.98c-2.5,0-4.41-.75-5.74-2.25-1.33-1.5-2-3.58-2-6.24v-45.82c0-2.75.67-4.85,2-6.3,1.33-1.46,3.25-2.19,5.74-2.19s4.43.73,5.81,2.19c1.37,1.46,2.06,3.56,2.06,6.3v45.82c0,2.67-.67,4.74-2,6.24-1.33,1.5-3.29,2.25-5.87,2.25Z"/>
    <path class="cls-1" d="M454.31,229.11c-2.5,0-4.41-.69-5.74-2.06-1.33-1.37-2-3.35-2-5.93v-47.19c0-2.58.67-4.54,2-5.87,1.33-1.33,3.2-2,5.62-2s4.29.67,5.62,2c1.33,1.33,2,3.29,2,5.87v8.49l-1.37-3.12c1.83-4.41,4.68-7.76,8.55-10.05,3.87-2.29,8.26-3.43,13.17-3.43s8.95.92,12.11,2.75c3.16,1.83,5.53,4.6,7.12,8.3,1.58,3.7,2.37,8.39,2.37,14.05v30.21c0,2.58-.67,4.56-2,5.93-1.33,1.37-3.25,2.06-5.74,2.06s-4.43-.69-5.81-2.06c-1.37-1.37-2.06-3.35-2.06-5.93v-29.46c0-4.74-.9-8.2-2.69-10.36-1.79-2.16-4.56-3.24-8.3-3.24-4.58,0-8.22,1.43-10.92,4.31-2.71,2.87-4.06,6.68-4.06,11.42v27.34c0,5.33-2.62,7.99-7.87,7.99Z"/>
    <path class="cls-1" d="M543.07,229.36c-5.33,0-10.01-1.29-14.05-3.87-4.04-2.58-7.18-6.26-9.42-11.05-2.25-4.79-3.37-10.43-3.37-16.92s1.12-12.21,3.37-16.92c2.25-4.7,5.39-8.34,9.42-10.92,4.04-2.58,8.72-3.87,14.05-3.87s9.51,1.25,13.3,3.75c3.79,2.5,6.35,5.79,7.68,9.86h-1.37v-32.46c0-2.58.66-4.54,2-5.87,1.33-1.33,3.24-2,5.74-2s4.43.67,5.81,2c1.37,1.33,2.06,3.29,2.06,5.87v74.16c0,2.58-.66,4.56-1.99,5.93-1.34,1.37-3.25,2.06-5.74,2.06s-4.41-.69-5.74-2.06c-1.34-1.37-2-3.35-2-5.93v-9.74l1.37,3.75c-1.25,4.33-3.79,7.78-7.61,10.36-3.83,2.58-8.32,3.87-13.48,3.87ZM547.44,217.5c3.08,0,5.78-.75,8.12-2.25,2.33-1.5,4.14-3.72,5.43-6.68,1.29-2.95,1.94-6.64,1.94-11.05,0-6.66-1.42-11.63-4.25-14.92-2.83-3.29-6.58-4.93-11.24-4.93-3.08,0-5.79.73-8.12,2.19-2.33,1.46-4.14,3.66-5.43,6.62-1.29,2.96-1.94,6.64-1.94,11.05,0,6.58,1.41,11.55,4.24,14.92,2.83,3.37,6.57,5.05,11.24,5.05Z"/>
    <path class="cls-1" d="M626.97,229.11c-2.25,0-4.06-.54-5.43-1.62-1.37-1.08-2.48-2.79-3.31-5.12l-26.09-73.78c-.92-2.66-.73-4.91.56-6.74,1.29-1.83,3.47-2.75,6.55-2.75,2.25,0,4,.52,5.25,1.56,1.25,1.04,2.25,2.68,2.99,4.93l22.47,66.67h-4.99l23.47-66.54c.83-2.25,1.87-3.91,3.12-4.99,1.25-1.08,2.87-1.62,4.87-1.62s3.58.54,4.74,1.62c1.16,1.08,2.16,2.79,3,5.12l22.72,66.42h-4.37l22.85-66.67c.75-2.16,1.75-3.78,2.99-4.87,1.25-1.08,2.96-1.62,5.12-1.62,2.66,0,4.62.92,5.87,2.75,1.25,1.83,1.41,4.08.5,6.74l-26.34,73.91c-.83,2.25-1.91,3.91-3.24,4.99-1.33,1.08-3.12,1.62-5.37,1.62s-4.04-.54-5.37-1.62c-1.33-1.08-2.42-2.79-3.24-5.12l-21.72-61.93h2.87l-21.97,62.05c-.83,2.25-1.89,3.91-3.18,4.99-1.29,1.08-3.06,1.62-5.31,1.62Z"/>
    <path class="cls-1" d="M755.69,229.36c-6.91,0-12.86-1.29-17.85-3.87-4.99-2.58-8.84-6.24-11.55-10.99-2.71-4.74-4.06-10.36-4.06-16.85s1.31-11.86,3.93-16.61c2.62-4.74,6.24-8.47,10.86-11.17,4.62-2.7,9.88-4.06,15.79-4.06,4.33,0,8.22.71,11.67,2.12,3.45,1.42,6.41,3.46,8.86,6.12,2.45,2.67,4.33,5.89,5.62,9.68,1.29,3.79,1.94,8.05,1.94,12.8,0,1.5-.52,2.64-1.56,3.43-1.04.79-2.52,1.19-4.43,1.19h-40.08v-8.99h35.08l-2,1.87c0-3.83-.56-7.03-1.68-9.61-1.12-2.58-2.75-4.56-4.87-5.93-2.12-1.37-4.77-2.06-7.93-2.06-3.5,0-6.47.81-8.93,2.44-2.46,1.62-4.33,3.91-5.62,6.86-1.29,2.96-1.94,6.47-1.94,10.55v.87c0,6.83,1.6,11.92,4.81,15.29,3.2,3.37,7.93,5.05,14.17,5.05,2.16,0,4.6-.27,7.3-.81,2.7-.54,5.26-1.48,7.68-2.81,1.75-1,3.29-1.43,4.62-1.31,1.33.13,2.39.6,3.18,1.43.79.83,1.27,1.85,1.44,3.06.16,1.21-.06,2.43-.69,3.68-.63,1.25-1.69,2.33-3.18,3.24-2.91,1.83-6.26,3.18-10.05,4.06-3.79.87-7.3,1.31-10.55,1.31Z"/>
    <path class="cls-1" d="M814.12,229.36c-6.91,0-12.11-1.98-15.61-5.93-3.5-3.95-5.25-9.76-5.25-17.42v-59.05c0-2.58.67-4.54,2-5.87,1.33-1.33,3.25-2,5.74-2s4.43.67,5.81,2c1.37,1.33,2.06,3.29,2.06,5.87v58.3c0,3.83.81,6.66,2.43,8.49,1.62,1.83,3.93,2.75,6.93,2.75.67,0,1.29-.02,1.87-.06.58-.04,1.16-.1,1.75-.19,1.16-.17,1.95.15,2.37.94.41.79.62,2.39.62,4.81,0,2.08-.42,3.7-1.25,4.87-.83,1.17-2.21,1.87-4.12,2.12-.83.08-1.71.17-2.62.25-.92.08-1.83.13-2.75.13Z"/>
    <path class="cls-1" d="M853.94,229.36c-6.91,0-12.11-1.98-15.61-5.93-3.5-3.95-5.25-9.76-5.25-17.42v-59.05c0-2.58.67-4.54,2-5.87,1.33-1.33,3.25-2,5.74-2s4.43.67,5.81,2c1.37,1.33,2.06,3.29,2.06,5.87v58.3c0,3.83.81,6.66,2.43,8.49,1.62,1.83,3.93,2.75,6.93,2.75.67,0,1.29-.02,1.87-.06.58-.04,1.16-.1,1.75-.19,1.16-.17,1.95.15,2.37.94.41.79.62,2.39.62,4.81,0,2.08-.42,3.7-1.25,4.87-.83,1.17-2.21,1.87-4.12,2.12-.83.08-1.71.17-2.62.25-.92.08-1.83.13-2.75.13Z"/>
  </g>
  <g>
    <path class="cls-1" d="M348.81,347.35c-9.16,0-17-1.85-23.53-5.56-6.53-3.7-11.55-8.95-15.04-15.73-3.5-6.78-5.24-14.79-5.24-24.03,0-6.91,1-13.13,3-18.66,2-5.53,4.87-10.28,8.62-14.23,3.75-3.95,8.34-6.99,13.8-9.11,5.45-2.12,11.59-3.18,18.42-3.18,4.58,0,9.07.58,13.48,1.75,4.41,1.17,8.28,2.83,11.61,4.99,1.75,1.08,2.91,2.39,3.5,3.93.58,1.54.71,3.04.37,4.49-.33,1.46-1.02,2.68-2.06,3.68-1.04,1-2.33,1.56-3.87,1.69-1.54.12-3.23-.4-5.06-1.56-2.58-1.66-5.37-2.87-8.36-3.62-3-.75-6.04-1.12-9.11-1.12-5.91,0-10.91,1.21-14.98,3.62-4.08,2.42-7.16,5.91-9.24,10.49-2.08,4.58-3.12,10.2-3.12,16.85s1.04,12.19,3.12,16.85c2.08,4.66,5.16,8.2,9.24,10.61,4.08,2.42,9.07,3.62,14.98,3.62,3.16,0,6.28-.39,9.36-1.19,3.08-.79,5.99-2.02,8.74-3.68,1.83-1.08,3.47-1.56,4.93-1.43,1.46.13,2.69.64,3.68,1.56,1,.92,1.66,2.06,2,3.43.33,1.37.25,2.79-.25,4.25s-1.5,2.73-3,3.81c-3.33,2.42-7.3,4.26-11.92,5.56-4.62,1.29-9.3,1.94-14.05,1.94Z"/>
    <path class="cls-1" d="M414.73,347.35c-6.33,0-11.82-1.29-16.48-3.87-4.66-2.58-8.28-6.26-10.86-11.05-2.58-4.79-3.87-10.43-3.87-16.92,0-4.91.73-9.3,2.18-13.17,1.46-3.87,3.56-7.2,6.31-9.99,2.75-2.79,6.03-4.91,9.86-6.37,3.83-1.46,8.11-2.18,12.86-2.18,6.32,0,11.82,1.29,16.48,3.87,4.66,2.58,8.28,6.24,10.86,10.99,2.58,4.74,3.87,10.36,3.87,16.85,0,4.91-.73,9.32-2.18,13.23-1.46,3.91-3.56,7.26-6.31,10.05-2.75,2.79-6.04,4.91-9.86,6.37-3.83,1.46-8.11,2.19-12.86,2.19ZM414.73,335.49c3.08,0,5.78-.75,8.12-2.25,2.33-1.5,4.14-3.72,5.43-6.68,1.29-2.95,1.94-6.64,1.94-11.05,0-6.66-1.42-11.63-4.24-14.92-2.83-3.29-6.58-4.93-11.24-4.93-3.08,0-5.79.73-8.12,2.19-2.33,1.46-4.14,3.66-5.43,6.62-1.29,2.96-1.94,6.64-1.94,11.05,0,6.58,1.41,11.55,4.24,14.92,2.83,3.37,6.57,5.05,11.24,5.05Z"/>
    <path class="cls-1" d="M480.9,347.35c-5.08,0-9.28-.94-12.61-2.81-3.33-1.87-5.8-4.68-7.43-8.43-1.62-3.75-2.43-8.41-2.43-13.98v-30.21c0-2.66.67-4.64,2-5.93,1.33-1.29,3.25-1.94,5.74-1.94s4.43.65,5.8,1.94c1.37,1.29,2.06,3.27,2.06,5.93v30.46c0,4.33.87,7.54,2.62,9.61,1.75,2.08,4.54,3.12,8.36,3.12,4.16,0,7.57-1.44,10.24-4.31,2.66-2.87,3.99-6.68,3.99-11.42v-27.47c0-2.66.67-4.64,2-5.93,1.33-1.29,3.25-1.94,5.74-1.94s4.43.65,5.81,1.94c1.37,1.29,2.06,3.27,2.06,5.93v47.19c0,5.33-2.54,7.99-7.62,7.99-2.42,0-4.29-.69-5.62-2.06-1.33-1.37-2-3.35-2-5.93v-9.49l1.75,3.75c-1.75,4.49-4.39,7.95-7.93,10.36-3.54,2.41-7.72,3.62-12.55,3.62Z"/>
    <path class="cls-1" d="M538.83,347.1c-2.5,0-4.41-.69-5.74-2.06-1.33-1.37-2-3.35-2-5.93v-47.19c0-2.58.67-4.54,2-5.87,1.33-1.33,3.2-2,5.62-2s4.29.67,5.62,2c1.33,1.33,2,3.29,2,5.87v8.49l-1.37-3.12c1.83-4.41,4.68-7.76,8.55-10.05,3.87-2.29,8.26-3.43,13.17-3.43s8.95.92,12.11,2.75,5.53,4.6,7.12,8.3c1.58,3.7,2.37,8.39,2.37,14.05v30.21c0,2.58-.67,4.56-2,5.93-1.33,1.37-3.24,2.06-5.74,2.06s-4.43-.69-5.8-2.06c-1.37-1.37-2.06-3.35-2.06-5.93v-29.46c0-4.74-.89-8.2-2.68-10.36-1.79-2.16-4.56-3.24-8.3-3.24-4.58,0-8.22,1.43-10.92,4.31-2.71,2.87-4.06,6.68-4.06,11.42v27.34c0,5.33-2.62,7.99-7.87,7.99Z"/>
    <path class="cls-1" d="M626.47,347.35c-3.58,0-7.37-.38-11.36-1.12-4-.75-7.58-2.04-10.74-3.87-1.33-.83-2.27-1.81-2.81-2.93-.54-1.12-.75-2.25-.62-3.37s.54-2.1,1.25-2.93c.71-.83,1.62-1.37,2.75-1.62,1.12-.25,2.35-.04,3.69.62,3.33,1.58,6.45,2.68,9.36,3.31,2.91.63,5.79.94,8.62.94,4,0,6.97-.69,8.93-2.06,1.95-1.37,2.93-3.18,2.93-5.43,0-1.91-.65-3.39-1.94-4.43-1.29-1.04-3.23-1.81-5.81-2.31l-12.49-2.37c-5.16-1-9.09-2.89-11.8-5.68-2.71-2.79-4.06-6.39-4.06-10.8,0-4,1.1-7.45,3.31-10.36,2.2-2.91,5.26-5.16,9.18-6.74,3.91-1.58,8.41-2.37,13.48-2.37,3.66,0,7.1.4,10.3,1.18,3.2.79,6.31,2.02,9.3,3.68,1.25.67,2.1,1.54,2.56,2.62.46,1.08.56,2.18.31,3.31-.25,1.12-.75,2.12-1.5,3-.75.87-1.68,1.42-2.81,1.62-1.12.21-2.39-.02-3.81-.69-2.58-1.33-5.06-2.29-7.43-2.87-2.37-.58-4.64-.87-6.8-.87-4.08,0-7.1.71-9.05,2.12-1.96,1.42-2.93,3.29-2.93,5.62,0,1.75.58,3.2,1.75,4.37,1.17,1.17,2.96,1.96,5.37,2.37l12.49,2.37c5.41,1,9.51,2.83,12.3,5.49,2.79,2.67,4.18,6.24,4.18,10.74,0,6.07-2.37,10.84-7.12,14.29-4.74,3.46-11.07,5.18-18.98,5.18Z"/>
    <path class="cls-1" d="M695.14,347.35c-6.91,0-12.86-1.29-17.85-3.87-4.99-2.58-8.84-6.24-11.55-10.99-2.71-4.74-4.06-10.36-4.06-16.85s1.31-11.86,3.93-16.61c2.62-4.74,6.24-8.47,10.86-11.17,4.62-2.7,9.88-4.06,15.79-4.06,4.33,0,8.22.71,11.67,2.12,3.45,1.42,6.41,3.46,8.86,6.12,2.45,2.67,4.33,5.89,5.62,9.68,1.29,3.79,1.94,8.05,1.94,12.8,0,1.5-.52,2.64-1.56,3.43-1.04.79-2.52,1.19-4.43,1.19h-40.08v-8.99h35.08l-2,1.87c0-3.83-.56-7.03-1.68-9.61-1.12-2.58-2.75-4.56-4.87-5.93-2.12-1.37-4.77-2.06-7.93-2.06-3.5,0-6.47.81-8.93,2.44-2.46,1.62-4.33,3.91-5.62,6.86-1.29,2.96-1.94,6.47-1.94,10.55v.87c0,6.83,1.6,11.92,4.81,15.29,3.2,3.37,7.93,5.05,14.17,5.05,2.16,0,4.6-.27,7.3-.81,2.7-.54,5.26-1.48,7.68-2.81,1.75-1,3.29-1.43,4.62-1.31,1.33.13,2.39.6,3.18,1.43.79.83,1.27,1.85,1.44,3.06.16,1.21-.06,2.43-.69,3.68-.63,1.25-1.69,2.33-3.18,3.24-2.91,1.83-6.26,3.18-10.05,4.06-3.79.87-7.3,1.31-10.55,1.31Z"/>
    <path class="cls-1" d="M753.56,347.35c-6.91,0-12.11-1.98-15.61-5.93-3.5-3.95-5.25-9.76-5.25-17.42v-59.05c0-2.58.67-4.54,2-5.87,1.33-1.33,3.25-2,5.74-2s4.43.67,5.81,2c1.37,1.33,2.06,3.29,2.06,5.87v58.3c0,3.83.81,6.66,2.43,8.49,1.62,1.83,3.93,2.75,6.93,2.75.67,0,1.29-.02,1.87-.06.58-.04,1.16-.1,1.75-.19,1.16-.17,1.95.15,2.37.94.41.79.62,2.39.62,4.81,0,2.08-.42,3.7-1.25,4.87-.83,1.17-2.21,1.87-4.12,2.12-.83.08-1.71.17-2.62.25-.92.08-1.83.13-2.75.13Z"/>
    <path class="cls-1" d="M793.39,347.35c-6.91,0-12.11-1.98-15.61-5.93-3.5-3.95-5.25-9.76-5.25-17.42v-59.05c0-2.58.67-4.54,2-5.87,1.33-1.33,3.25-2,5.74-2s4.43.67,5.81,2c1.37,1.33,2.06,3.29,2.06,5.87v58.3c0,3.83.81,6.66,2.43,8.49,1.62,1.83,3.93,2.75,6.93,2.75.67,0,1.29-.02,1.87-.06.58-.04,1.16-.1,1.75-.19,1.16-.17,1.95.15,2.37.94.41.79.62,2.39.62,4.81,0,2.08-.42,3.7-1.25,4.87-.83,1.17-2.21,1.87-4.12,2.12-.83.08-1.71.17-2.62.25-.92.08-1.83.13-2.75.13Z"/>
    <path class="cls-1" d="M820.1,272.56c-2.91,0-5.18-.73-6.8-2.19-1.62-1.46-2.43-3.47-2.43-6.05s.81-4.7,2.43-6.12c1.62-1.41,3.89-2.12,6.8-2.12s5.28.71,6.87,2.12c1.58,1.42,2.37,3.46,2.37,6.12s-.79,4.6-2.37,6.05c-1.58,1.46-3.87,2.19-6.87,2.19ZM820.1,346.97c-2.5,0-4.41-.75-5.74-2.25-1.33-1.5-2-3.58-2-6.24v-45.82c0-2.75.67-4.85,2-6.3,1.33-1.46,3.25-2.19,5.74-2.19s4.43.73,5.81,2.19c1.37,1.46,2.06,3.56,2.06,6.3v45.82c0,2.67-.67,4.74-2,6.24-1.33,1.5-3.29,2.25-5.87,2.25Z"/>
    <path class="cls-1" d="M851.94,347.1c-2.5,0-4.41-.69-5.74-2.06-1.33-1.37-2-3.35-2-5.93v-47.19c0-2.58.67-4.54,2-5.87s3.2-2,5.62-2,4.29.67,5.62,2c1.33,1.33,2,3.29,2,5.87v8.49l-1.37-3.12c1.83-4.41,4.68-7.76,8.55-10.05,3.87-2.29,8.26-3.43,13.17-3.43s8.95.92,12.11,2.75c3.16,1.83,5.53,4.6,7.12,8.3,1.58,3.7,2.37,8.39,2.37,14.05v30.21c0,2.58-.67,4.56-2,5.93-1.33,1.37-3.24,2.06-5.74,2.06s-4.43-.69-5.8-2.06c-1.37-1.37-2.06-3.35-2.06-5.93v-29.46c0-4.74-.89-8.2-2.68-10.36-1.79-2.16-4.56-3.24-8.3-3.24-4.58,0-8.22,1.43-10.93,4.31-2.7,2.87-4.06,6.68-4.06,11.42v27.34c0,5.33-2.62,7.99-7.87,7.99Z"/>
    <path class="cls-1" d="M945.7,369.82c-4.49,0-8.84-.42-13.05-1.25-4.2-.83-8.01-2.12-11.42-3.87-1.58-.83-2.64-1.83-3.18-3-.54-1.17-.71-2.35-.5-3.56.21-1.21.71-2.27,1.5-3.18.79-.92,1.77-1.54,2.93-1.87,1.17-.33,2.37-.17,3.62.5,3.66,1.83,7.14,3.02,10.43,3.56,3.29.54,6.1.81,8.43.81,5.58,0,9.76-1.35,12.55-4.06,2.79-2.71,4.18-6.72,4.18-12.05v-11.24h1.12c-1.25,4.24-3.85,7.64-7.8,10.17-3.95,2.54-8.43,3.81-13.42,3.81-5.49,0-10.28-1.27-14.36-3.81-4.08-2.54-7.24-6.1-9.49-10.68-2.25-4.57-3.37-9.9-3.37-15.98,0-4.57.64-8.72,1.94-12.42,1.29-3.7,3.12-6.89,5.49-9.55,2.37-2.66,5.24-4.72,8.62-6.18,3.37-1.46,7.09-2.18,11.17-2.18,5.16,0,9.67,1.27,13.54,3.81,3.87,2.54,6.39,5.89,7.55,10.05l-1.25,3.12v-8.87c0-2.58.69-4.54,2.06-5.87,1.37-1.33,3.27-2,5.68-2s4.41.67,5.74,2c1.33,1.33,2,3.29,2,5.87v48.07c0,9.9-2.62,17.35-7.87,22.35-5.24,4.99-12.86,7.49-22.85,7.49ZM945.32,332.74c3.25,0,6.04-.75,8.36-2.25,2.33-1.5,4.14-3.64,5.43-6.43,1.29-2.79,1.94-6.1,1.94-9.93,0-5.74-1.42-10.26-4.24-13.54-2.83-3.29-6.66-4.93-11.49-4.93-3.24,0-6.04.75-8.36,2.25-2.33,1.5-4.14,3.62-5.43,6.37-1.29,2.75-1.94,6.04-1.94,9.86,0,5.74,1.41,10.28,4.25,13.61,2.83,3.33,6.66,4.99,11.48,4.99Z"/>
  </g>
  <path class="cls-1" d="M295.96,375.37c-17.42-13.73-41.61-20.44-68.14-18.87-24.15,1.42-47.19,9.11-66.89,16.22-21.66,7.8-44.07,16.81-64.06,29.79-.21-2.78-.45-5.56-.71-8.33,1.32-11.02,4.59-21.62,8.7-32.28,8.86-24.68,21.71-50.79,43.78-64.44,8.58-5.46,18.26-9.02,27.97-9.54,5.55-.35,9.9.56,15.78,1.1,7.15.78,16.08-.95,21.57-6.8,9.78-9.53,6.84-25.78,6.99-37.81,0,0-.26-15.39-.28-16.34,1.41.51,3.02,1.02,4.32,1.09,5.38.92,11.43-3.5,12.63-8.69,1.21-4.11.79-6.61,1.17-10.22,1.26-28.67,1.34-57.24-2.51-85.78-3.5-24.88-22.09-45.8-44.22-56.43-32.91-15.89-73.76-12.81-103.82,8.31-7.8,5.73.48,17.41,8.46,12.01,16.84-11.83,38.41-16.88,59.03-14.9,30.21,2.69,60.55,22.51,65.43,53.65,3.63,27.08,3.64,55.04,2.47,82.36-.06,1.05-.12,2.28-.18,3.39-10.3-3.5-18.45,3.16-17.9,14.96l.32,16.84.32,16.77c.07,4.5-1.11,8.48-2.98,10.31-1.84,1.88-4.88,2.79-9.67,2.36-5.31-.56-12.1-1.53-17.78-1.09-25.21,1.57-47.06,17.22-61.33,36.94-10.05,14.07-17,29.25-22.75,45.11l-6.86-56.88c-3.47-42.42,21.7-86.65,60.73-105.08,4.94-2.33,10.04-4.28,15.45-6.35,8.76-3.35,17.82-6.8,26.19-12.05,13-8.14,27.22-24.5,24.55-43.81-1.76-12.7-10.95-24.29-23.98-30.23-10.19-4.65-22.41-6.03-36.31-4.1-34.41,4.77-65.66,28.39-79.63,60.19-14.79,33.66-10.1,72.56-6.32,103.82l4.73,39.22c.22,2.54.52,5.07.92,7.59l7.47,61.9c1.72,14.28,3.48,28.88,4.17,43.44-.11.09-.22.18-.33.27-26.29,21.4-42.2,49.92-43.64,78.27-.34,6.68,1.22,15.93,6.61,21.84,3.14,3.44,7.18,5.36,11.68,5.55.24,0,.48.01.72.01,6.91,0,13.21-4.2,18.75-12.5,12.29-18.42,19.31-41.56,20.86-68.77.34-5.89.41-11.78.29-17.65,20.39-14.87,44.71-24.75,68.19-33.21,18.73-6.75,40.58-14.07,62.77-15.37,22.93-1.35,43.59,4.24,58.19,15.75,16.25,12.81,24.32,34,19.62,51.54-1.05,3.92,1.28,7.95,5.19,9,3.91,1.06,7.95-1.28,8.99-5.19,6.27-23.41-3.66-50.29-24.72-66.89ZM78.57,245.99c-3.07-27.64-4.7-57.43,6.69-83.35,11.96-27.24,38.74-47.47,68.2-51.55,3.39-.47,6.64-.7,9.72-.7,7,0,13.19,1.21,18.48,3.62,8.37,3.82,14.47,11.23,15.53,18.89,1.71,12.36-8.51,23.53-17.79,29.34-7.16,4.48-15.16,7.54-23.64,10.78-5.42,2.07-11.03,4.21-16.48,6.78-27.79,13.12-49.4,37.75-60.71,66.2ZM82.76,436.55c-1.4,24.56-7.6,45.23-18.41,61.45-3.75,5.62-6,6.05-6.64,5.95-.39-.02-.82-.09-1.44-.77-1.84-2.02-3.02-6.73-2.79-11.2,1.07-20.97,11.67-42.26,29.48-59.79-.05,1.46-.11,2.91-.2,4.36Z"/>
</svg>